<?xml version="1.0" encoding="utf-8"?>
<!-- Generator: Adobe Illustrator 15.1.0, SVG Export Plug-In . SVG Version: 6.00 Build 0)  -->
<!DOCTYPE svg PUBLIC "-//W3C//DTD SVG 1.1//EN" "http://www.w3.org/Graphics/SVG/1.1/DTD/svg11.dtd">
<svg version="1.1" id="Layer_1" xmlns="http://www.w3.org/2000/svg" xmlns:xlink="http://www.w3.org/1999/xlink" x="0px" y="0px"
	 width="26px" height="20px" viewBox="0 0 26 20" enable-background="new 0 0 26 20" xml:space="preserve">
<g>
	<path fill="#1C75BC" d="M13.664,9.254h-0.06V8.082c0-3.481-2.83-6.312-6.308-6.312c-3.482,0-6.315,2.831-6.315,6.312v1.173H0.923
		C0.413,9.254,0,9.667,0,10.174v8.905C0,19.588,0.413,20,0.923,20h12.741c0.51,0,0.922-0.412,0.922-0.921v-8.905
		C14.586,9.667,14.174,9.254,13.664,9.254z M8.272,15.066v2.861H6.314v-2.861C5.806,14.74,5.47,14.18,5.47,13.533
		c0-1.009,0.817-1.824,1.826-1.824c1.004,0,1.822,0.815,1.822,1.824C9.118,14.18,8.778,14.74,8.272,15.066z M11.763,9.254H2.825
		V8.082c0-2.464,2.004-4.47,4.471-4.47c2.462,0,4.467,2.006,4.467,4.47V9.254z"/>
	<g>
		<g>
			<linearGradient id="SVGID_1_" gradientUnits="userSpaceOnUse" x1="17.0996" y1="19.9609" x2="17.0996" y2="2.0869">
				<stop  offset="0.297" style="stop-color:#F15A29"/>
				<stop  offset="1" style="stop-color:#F7941E"/>
			</linearGradient>
			<path fill="url(#SVGID_1_)" d="M26.036,11.023c0,4.938-4.004,8.938-8.937,8.938c-4.936,0-8.937-4-8.937-8.938
				c0-4.935,4.001-8.937,8.937-8.937C22.032,2.086,26.036,6.089,26.036,11.023z"/>
			<linearGradient id="SVGID_2_" gradientUnits="userSpaceOnUse" x1="17.0977" y1="19.4316" x2="17.0977" y2="2.6172">
				<stop  offset="0.6424" style="stop-color:#FFFFFF;stop-opacity:0"/>
				<stop  offset="1" style="stop-color:#FFFFFF;stop-opacity:0.5"/>
			</linearGradient>
			<path fill="url(#SVGID_2_)" d="M17.1,2.617c-4.645,0-8.407,3.767-8.407,8.407c0,4.642,3.763,8.408,8.407,8.408
				c4.642,0,8.404-3.767,8.404-8.408C25.504,6.383,21.741,2.617,17.1,2.617z M17.1,18.952c-4.377,0-7.928-3.551-7.928-7.929
				c0-4.376,3.55-7.928,7.928-7.928c4.377,0,7.926,3.552,7.926,7.928C25.025,15.401,21.477,18.952,17.1,18.952z"/>
		</g>
		<g>
			<path fill="#FFFFFF" d="M18.048,14.719h-2.311c-0.005-0.328-0.008-0.534-0.008-0.604c0-0.749,0.12-1.368,0.369-1.85
				c0.249-0.483,0.744-1.025,1.487-1.632c0.744-0.605,1.188-1,1.333-1.187c0.226-0.298,0.336-0.62,0.336-0.98
				c0-0.497-0.194-0.917-0.594-1.272c-0.393-0.354-0.932-0.531-1.599-0.531c-0.649,0-1.187,0.185-1.622,0.551
				c-0.436,0.37-0.736,0.931-0.899,1.687l-2.34-0.291c0.071-1.08,0.527-1.998,1.382-2.754c0.858-0.754,1.978-1.134,3.37-1.134
				c1.463,0,2.626,0.383,3.489,1.148c0.865,0.762,1.299,1.65,1.299,2.668c0,0.565-0.158,1.095-0.479,1.597
				c-0.315,0.5-0.996,1.188-2.034,2.048c-0.539,0.448-0.875,0.808-1.001,1.08C18.097,13.534,18.04,14.02,18.048,14.719z
				 M15.737,18.148v-2.548h2.549v2.548H15.737z"/>
		</g>
	</g>
</g>
</svg>
