<?xml version="1.0" encoding="utf-8"?>
<!-- Generator: Adobe Illustrator 15.1.0, SVG Export Plug-In . SVG Version: 6.00 Build 0)  -->
<!DOCTYPE svg PUBLIC "-//W3C//DTD SVG 1.1//EN" "http://www.w3.org/Graphics/SVG/1.1/DTD/svg11.dtd">
<svg version="1.1" id="Layer_1" xmlns="http://www.w3.org/2000/svg" xmlns:xlink="http://www.w3.org/1999/xlink" x="0px" y="0px"
	 width="26px" height="20px" viewBox="0 0 26 20" enable-background="new 0 0 26 20" xml:space="preserve">
<g>
	<polygon fill="#939598" points="12.486,2.612 3.998,2.612 3.998,6.49 5.068,6.49 5.068,3.746 12.043,3.746 11.995,8.794 
		16.852,8.837 16.852,18.867 5.068,18.867 5.068,17.123 3.998,17.123 3.998,20 17.924,20 17.924,8.367 	"/>
	<g>
		<path fill="#1C75BC" d="M0,5.562V17.33h11.766V5.562H0z M10.63,16.195H1.134V6.699h9.496V16.195z"/>
		<rect x="2.728" y="8.044" fill="#1C75BC" width="6.309" height="1.17"/>
		<rect x="2.728" y="10.703" fill="#1C75BC" width="6.309" height="1.17"/>
		<rect x="2.728" y="13.289" fill="#1C75BC" width="3.935" height="1.17"/>
	</g>
	<g>
		<g>
			<linearGradient id="SVGID_1_" gradientUnits="userSpaceOnUse" x1="17.4277" y1="20" x2="17.4277" y2="2.8564">
				<stop  offset="0.2788" style="stop-color:#F15A29"/>
				<stop  offset="1" style="stop-color:#F7941E"/>
			</linearGradient>
			<circle fill="url(#SVGID_1_)" cx="17.428" cy="11.428" r="8.572"/>
			<linearGradient id="SVGID_2_" gradientUnits="userSpaceOnUse" x1="17.4258" y1="19.4902" x2="17.4258" y2="3.3652">
				<stop  offset="0.6424" style="stop-color:#FFFFFF;stop-opacity:0"/>
				<stop  offset="1" style="stop-color:#FFFFFF;stop-opacity:0.5"/>
			</linearGradient>
			<path fill="url(#SVGID_2_)" d="M17.428,3.365c-4.454,0-8.065,3.61-8.065,8.063c0,4.453,3.611,8.063,8.065,8.063
				c4.451,0,8.061-3.609,8.061-8.063C25.488,6.975,21.879,3.365,17.428,3.365z M17.428,19.029c-4.198,0-7.604-3.4-7.604-7.602
				c0-4.196,3.406-7.604,7.604-7.604c4.197,0,7.602,3.408,7.602,7.604C25.029,15.629,21.625,19.029,17.428,19.029z"/>
		</g>
		<g>
			<path fill="#FFFFFF" d="M18.336,14.973h-2.215c-0.006-0.314-0.008-0.512-0.008-0.582c0-0.715,0.117-1.311,0.354-1.775
				c0.24-0.463,0.715-0.98,1.43-1.561c0.713-0.583,1.141-0.962,1.275-1.14c0.215-0.288,0.322-0.597,0.322-0.939
				c0-0.476-0.184-0.881-0.57-1.22c-0.377-0.34-0.893-0.51-1.531-0.51c-0.623,0-1.141,0.176-1.559,0.528
				c-0.416,0.354-0.703,0.893-0.861,1.618l-2.244-0.281c0.066-1.038,0.503-1.918,1.326-2.643c0.824-0.723,1.896-1.086,3.23-1.086
				c1.404,0,2.523,0.365,3.35,1.102c0.83,0.732,1.244,1.584,1.244,2.558c0,0.54-0.152,1.051-0.455,1.534
				c-0.305,0.481-0.957,1.135-1.953,1.963c-0.518,0.432-0.84,0.773-0.961,1.035C18.385,13.834,18.33,14.303,18.336,14.973z
				 M16.121,18.262v-2.443h2.441v2.443H16.121z"/>
		</g>
	</g>
</g>
</svg>
