<?xml version="1.0" encoding="utf-8"?>
<!-- Generator: Adobe Illustrator 15.1.0, SVG Export Plug-In . SVG Version: 6.00 Build 0)  -->
<!DOCTYPE svg PUBLIC "-//W3C//DTD SVG 1.1//EN" "http://www.w3.org/Graphics/SVG/1.1/DTD/svg11.dtd">
<svg version="1.1" id="Layer_1" xmlns="http://www.w3.org/2000/svg" xmlns:xlink="http://www.w3.org/1999/xlink" x="0px" y="0px"
	 width="26px" height="20px" viewBox="0 0 26 20" enable-background="new 0 0 26 20" xml:space="preserve">
<g>
	<rect x="0.012" y="6.254" fill="#1C75BC" width="17.787" height="13.746"/>
	<rect y="2.212" fill="#1C75BC" width="5.502" height="3.591"/>
	<rect x="6.097" y="2.212" fill="#939598" width="5.505" height="3.591"/>
	<rect x="12.194" y="2.212" fill="#939598" width="5.505" height="3.591"/>
	<g>
		<g>
			<linearGradient id="SVGID_1_" gradientUnits="userSpaceOnUse" x1="17.3262" y1="19.7051" x2="17.3262" y2="2.4248">
				<stop  offset="0.2424" style="stop-color:#F15A29"/>
				<stop  offset="1" style="stop-color:#FBB040"/>
			</linearGradient>
			<circle fill="url(#SVGID_1_)" cx="17.326" cy="11.065" r="8.641"/>
			<linearGradient id="SVGID_2_" gradientUnits="userSpaceOnUse" x1="17.3252" y1="19.1924" x2="17.3252" y2="2.9375">
				<stop  offset="0.6424" style="stop-color:#FFFFFF;stop-opacity:0"/>
				<stop  offset="1" style="stop-color:#FFFFFF;stop-opacity:0.5"/>
			</linearGradient>
			<path fill="url(#SVGID_2_)" d="M17.325,2.937c-4.487,0-8.129,3.64-8.129,8.128c0,4.488,3.642,8.127,8.129,8.127
				c4.486,0,8.129-3.639,8.129-8.127C25.454,6.577,21.812,2.937,17.325,2.937z M17.325,18.728c-4.231,0-7.664-3.428-7.664-7.662
				c0-4.231,3.433-7.665,7.664-7.665c4.231,0,7.664,3.434,7.664,7.665C24.989,15.3,21.557,18.728,17.325,18.728z"/>
		</g>
		<g>
			<path fill="#FFFFFF" d="M18.243,14.639h-2.234c-0.006-0.317-0.007-0.516-0.007-0.589c0-0.721,0.116-1.319,0.355-1.787
				c0.243-0.466,0.723-0.989,1.439-1.575c0.719-0.585,1.149-0.969,1.288-1.148c0.218-0.289,0.325-0.602,0.325-0.947
				c0-0.48-0.188-0.887-0.574-1.229c-0.384-0.342-0.9-0.515-1.547-0.515c-0.626,0-1.147,0.178-1.569,0.534
				c-0.42,0.357-0.71,0.9-0.87,1.63l-2.258-0.28c0.064-1.048,0.505-1.935,1.335-2.667c0.83-0.727,1.914-1.093,3.256-1.093
				c1.416,0,2.541,0.368,3.376,1.109c0.835,0.739,1.253,1.598,1.253,2.58c0,0.544-0.152,1.059-0.458,1.545
				c-0.309,0.484-0.964,1.145-1.97,1.979c-0.521,0.435-0.846,0.778-0.966,1.043C18.292,13.491,18.233,13.961,18.243,14.639z
				 M16.009,17.953v-2.461h2.461v2.461H16.009z"/>
		</g>
	</g>
</g>
</svg>
