<?xml version="1.0" encoding="utf-8"?>
<!-- Generator: Adobe Illustrator 15.1.0, SVG Export Plug-In . SVG Version: 6.00 Build 0)  -->
<!DOCTYPE svg PUBLIC "-//W3C//DTD SVG 1.1//EN" "http://www.w3.org/Graphics/SVG/1.1/DTD/svg11.dtd">
<svg version="1.1" id="Layer_1" xmlns="http://www.w3.org/2000/svg" xmlns:xlink="http://www.w3.org/1999/xlink" x="0px" y="0px"
	 width="50px" height="50px" viewBox="0 0 50 50" enable-background="new 0 0 50 50" xml:space="preserve">
<g>
	<g>
		<rect x="9.331" y="18.631" fill="#1F35BD" width="5.52" height="28.08"/>
		<rect x="34.709" y="18.631" fill="#1F35BD" width="5.521" height="28.08"/>
		<rect x="26.249" y="18.631" fill="#1F35BD" width="5.521" height="28.08"/>
		<rect x="17.79" y="18.631" fill="#1F35BD" width="5.521" height="28.08"/>
		<rect x="9.329" y="41.191" fill="#1F35BD" width="28.081" height="5.52"/>
		<path fill="#1F35BD" d="M28.482,1.83h-7.17c-3.503,0-6.345,2.84-6.345,6.345c0,3.504,2.842,6.345,6.345,6.345h7.17
			c3.502,0,6.345-2.841,6.345-6.345C34.827,4.67,31.984,1.83,28.482,1.83z M27.082,13.359h-4.37c-2.133,0-3.865-1.9-3.865-4.242
			c0-2.345,1.732-4.244,3.865-4.244h4.37c2.133,0,3.865,1.898,3.865,4.244C30.947,11.458,29.215,13.359,27.082,13.359z"/>
		<path fill="#1F35BD" d="M45.984,13.169c0,1.524-1.235,2.76-2.762,2.76H6.568c-1.525,0-2.762-1.236-2.762-2.76l0,0
			c0-1.526,1.237-2.762,2.762-2.762h36.655C44.749,10.407,45.984,11.643,45.984,13.169L45.984,13.169z"/>
	</g>
</g>
</svg>
