<?xml version="1.0" encoding="utf-8"?>
<!-- Generator: Adobe Illustrator 15.1.0, SVG Export Plug-In . SVG Version: 6.00 Build 0)  -->
<!DOCTYPE svg PUBLIC "-//W3C//DTD SVG 1.1//EN" "http://www.w3.org/Graphics/SVG/1.1/DTD/svg11.dtd">
<svg version="1.1" id="Layer_1" xmlns="http://www.w3.org/2000/svg" xmlns:xlink="http://www.w3.org/1999/xlink" x="0px" y="0px"
	 width="50px" height="50px" viewBox="0 0 50 50" enable-background="new 0 0 50 50" xml:space="preserve">
<path fill="#1F35BD" d="M43.557,20.225c2.879-2.879,3.696-7.03,2.473-10.642l-5.62,5.621c-0.058,0.063-0.101,0.132-0.161,0.194
	c-0.061,0.061-0.131,0.103-0.195,0.158l-0.27,0.271l-0.026-0.029c-1.801,1.366-4.368,1.244-6.008-0.398
	c-1.647-1.645-1.767-4.21-0.405-6.013l-0.027-0.026l0.271-0.271c0.055-0.064,0.1-0.134,0.158-0.193
	c0.063-0.062,0.131-0.104,0.195-0.16l5.619-5.621c-3.609-1.221-7.762-0.405-10.638,2.474c-2.748,2.746-3.623,6.65-2.638,10.14
	c-0.105,0.097-0.213,0.19-0.328,0.305L6.561,35.434c-2.679,2.678-3.25,6.452-1.277,8.426c1.978,1.976,5.753,1.406,8.43-1.271
	L33.109,23.19c0.117-0.115,0.211-0.222,0.308-0.331C36.906,23.845,40.809,22.971,43.557,20.225z M7.783,41.365
	c-0.899-0.896-0.901-2.354,0-3.254c0.894-0.897,2.353-0.897,3.25,0c0.898,0.899,0.898,2.356,0,3.254
	C10.136,42.264,8.679,42.264,7.783,41.365z"/>
</svg>
